<mxfile host="app.diagrams.net" modified="2024-05-27T08:50:39.699Z" agent="Mozilla/5.0 (Windows NT 10.0; Win64; x64) AppleWebKit/537.36 (KHTML, like Gecko) Chrome/124.0.0.0 Safari/537.36" version="24.4.8" etag="rAkYWUg0b7Fg7agznh9S" type="github">
  <diagram name="第 1 页" id="6wrnX3EV837FejuM0gVt">
    <mxGraphModel>
      <root>
        <mxCell id="0" />
        <mxCell id="1" parent="0" />
      </root>
    </mxGraphModel>
  </diagram>
</mxfile>
